<svg width="256" height="256" viewBox="0 0 256 256" fill="none" xmlns="http://www.w3.org/2000/svg">
<g clip-path="url(#clip0_703_55)">
<path d="M196 0H60C26.8629 0 0 26.8629 0 60V196C0 229.137 26.8629 256 60 256H196C229.137 256 256 229.137 256 196V60C256 26.8629 229.137 0 196 0Z" fill="#F4F2ED"/>
<path d="M87.4496 87.005L75.8115 75.3612L75.8565 159.463L75.9971 163.39C76.0534 165.246 76.4049 167.327 76.9674 169.493L169.147 202.005L192.209 191.796L192.229 191.762L87.444 87.005H87.4496Z" fill="#00C4B3"/>
<path d="M76.9699 169.493H76.9784C76.9699 169.459 76.9559 169.42 76.939 169.38C76.9587 169.423 76.9587 169.465 76.9671 169.493H76.9699ZM192.187 191.796L169.124 202.005L76.9587 169.493C78.7165 176.254 82.6174 183.853 86.808 187.999L116.874 217.916L183.778 218L192.159 191.796H192.187Z" fill="#22D3C5"/>
<path d="M76.1263 75.364L40.2866 129.491C37.311 132.669 38.796 139.227 43.5857 144.059L64.2744 164.917L77.2794 169.501C76.7169 167.341 76.3626 165.282 76.3091 163.398L76.1685 159.472L76.1263 75.3696V75.364Z" fill="#0075C9"/>
<path d="M169.906 76.4469C167.741 75.8984 165.665 75.5525 163.795 75.499L159.638 75.3472L75.811 75.3669L192.226 191.765L202.452 168.702L169.912 76.4525L169.906 76.4469Z" fill="#0075C9"/>
<path d="M169.799 76.4271C169.836 76.4412 169.875 76.4496 169.906 76.4553V76.444C169.87 76.4356 169.836 76.4356 169.799 76.4215V76.4271ZM188.404 86.3215C184.171 82.0606 176.676 78.1653 169.906 76.4553L202.447 168.697L192.209 191.759L217.19 183.777L217.246 115.287L188.401 86.3187L188.404 86.3215Z" fill="#00A8E1"/>
<path d="M165.344 63.5234L144.532 42.8234C139.677 38.0506 133.119 36.56 129.969 39.53L75.8452 75.3613L159.672 75.3416L163.828 75.4934C165.699 75.5497 167.777 75.8928 169.94 76.4413L165.35 63.5178L165.344 63.5234Z" fill="#00C4B3"/>
</g>
<defs>
<clipPath id="clip0_703_55">
<rect width="256" height="256" fill="white"/>
</clipPath>
</defs>
</svg>
