<svg width="260" height="260" viewBox="0 0 260 260" fill="none" xmlns="http://www.w3.org/2000/svg">
<g clip-path="url(#clip0_701_52)">
<path d="M249.6 0H10.4C4.65624 0 0 4.65624 0 10.4V249.6C0 255.344 4.65624 260 10.4 260H249.6C255.344 260 260 255.344 260 249.6V10.4C260 4.65624 255.344 0 249.6 0Z" fill="#F08705"/>
<path fill-rule="evenodd" clip-rule="evenodd" d="M137.995 66.56L166.038 36.9664L260 130.873V249.6C260.001 250.966 259.733 252.319 259.211 253.581C258.689 254.844 257.923 255.991 256.957 256.957C255.991 257.923 254.844 258.689 253.581 259.211C252.319 259.733 250.966 260.001 249.6 260H86.5057L36.5021 209.792L137.995 66.56Z" fill="#DF6C0C"/>
<path d="M215.8 148.2H185.213L156.696 98.8H158.554C159.92 98.8012 161.273 98.533 162.535 98.0108C163.797 97.4886 164.944 96.7226 165.91 95.7566C166.876 94.7907 167.642 93.6437 168.164 92.3813C168.687 91.119 168.955 89.7661 168.954 88.4V44.2C168.955 42.8339 168.687 41.481 168.164 40.2186C167.642 38.9563 166.876 37.8093 165.91 36.8434C164.944 35.8774 163.797 35.1114 162.535 34.5892C161.273 34.0669 159.92 33.7988 158.554 33.8H101.4C100.034 33.7988 98.681 34.0669 97.4186 34.5892C96.1563 35.1114 95.0093 35.8774 94.0434 36.8434C93.0774 37.8093 92.3114 38.9563 91.7892 40.2186C91.2669 41.481 90.9988 42.8339 91 44.2V88.4C90.9988 89.7661 91.2669 91.119 91.7892 92.3813C92.3114 93.6437 93.0774 94.7907 94.0434 95.7566C95.0093 96.7226 96.1563 97.4886 97.4186 98.0108C98.681 98.533 100.034 98.8012 101.4 98.8H103.304L74.7871 148.2H44.2C42.8339 148.199 41.481 148.467 40.2186 148.989C38.9563 149.511 37.8093 150.277 36.8434 151.243C35.8774 152.209 35.1114 153.356 34.5892 154.619C34.0669 155.881 33.7988 157.234 33.8 158.6V202.8C33.7988 204.166 34.0669 205.519 34.5892 206.781C35.1114 208.044 35.8774 209.191 36.8434 210.157C37.8093 211.123 38.9563 211.889 40.2186 212.411C41.481 212.933 42.8339 213.201 44.2 213.2H101.4C102.766 213.201 104.119 212.933 105.381 212.411C106.644 211.889 107.791 211.123 108.757 210.157C109.723 209.191 110.489 208.044 111.011 206.781C111.533 205.519 111.801 204.166 111.8 202.8V158.6C111.801 157.234 111.533 155.881 111.011 154.619C110.489 153.356 109.723 152.209 108.757 151.243C107.791 150.277 106.644 149.511 105.381 148.989C104.119 148.467 102.766 148.199 101.4 148.2H92.7921L121.318 98.8H138.682L167.199 148.2H158.6C157.234 148.199 155.881 148.467 154.619 148.989C153.356 149.511 152.209 150.277 151.243 151.243C150.277 152.209 149.511 153.356 148.989 154.619C148.467 155.881 148.199 157.234 148.2 158.6V202.8C148.199 204.166 148.467 205.519 148.989 206.781C149.511 208.044 150.277 209.191 151.243 210.157C152.209 211.123 153.356 211.889 154.619 212.411C155.881 212.933 157.234 213.201 158.6 213.2H215.8C217.166 213.201 218.519 212.933 219.781 212.411C221.044 211.889 222.191 211.123 223.157 210.157C224.123 209.191 224.889 208.044 225.411 206.781C225.933 205.519 226.201 204.166 226.2 202.8V158.6C226.201 157.234 225.933 155.881 225.411 154.619C224.889 153.356 224.123 152.209 223.157 151.243C222.191 150.277 221.044 149.511 219.781 148.989C218.519 148.467 217.166 148.199 215.8 148.2Z" fill="white"/>
</g>
<defs>
<clipPath id="clip0_701_52">
<rect width="260" height="260" rx="66" fill="white"/>
</clipPath>
</defs>
</svg>
