<svg width="256" height="256" viewBox="0 0 256 256" fill="none" xmlns="http://www.w3.org/2000/svg">
<g clip-path="url(#clip0_84_285)">
<rect width="256" height="256" rx="60" fill="#F26798"/>
<path fill-rule="evenodd" clip-rule="evenodd" d="M228 128C228 183.229 183.229 228 128 228C72.7715 228 28 183.229 28 128C28 72.7715 72.7715 28 128 28C183.229 28 228 72.7715 228 128ZM163.171 206.189C152.44 211.024 140.534 213.714 128 213.714C107.308 213.714 88.3279 206.382 73.5171 194.174C88.9243 168.319 113.706 148.716 143.164 140.044C151.626 161.272 158.353 183.379 163.171 206.189ZM176.205 198.885C171.458 177.536 165.093 156.799 157.246 136.805C163.779 135.712 170.488 135.143 177.33 135.143C189.69 135.143 201.605 136.997 212.818 140.439C209.291 164.701 195.601 185.669 176.205 198.885ZM213.687 125.809C202.113 122.581 189.918 120.857 177.33 120.857C168.556 120.857 159.976 121.694 151.669 123.292C149.501 118.291 147.241 113.341 144.888 108.443C163.589 100.142 180.871 89.2271 196.269 76.1636C206.804 90.0171 213.219 107.175 213.687 125.809ZM186.704 65.5438C172.248 77.7559 156.026 87.9393 138.476 95.6579C129.212 77.9419 118.726 60.9666 107.131 44.844C113.811 43.1729 120.802 42.2857 128 42.2857C150.715 42.2857 171.366 51.1216 186.704 65.5438ZM93.0179 49.7258C67.8553 60.9886 49.1148 84.0286 43.8079 111.834C48.6841 112.193 53.6104 112.375 58.5805 112.375C81.9227 112.375 104.322 108.351 125.124 100.959C115.676 83.0509 104.933 65.9319 93.0179 49.7258ZM42.3075 126.048C42.293 126.697 42.2857 127.348 42.2857 128C42.2857 149.371 50.1074 168.916 63.0444 183.928C80.0859 156.924 106.443 136.371 137.609 126.794C135.685 122.424 133.686 118.094 131.614 113.805C108.834 122.122 84.2356 126.661 58.5805 126.661C53.1066 126.661 47.6798 126.454 42.3075 126.048Z" fill="white"/>
</g>
<defs>
<clipPath id="clip0_84_285">
<rect width="256" height="256" fill="white"/>
</clipPath>
</defs>
</svg>
