<svg width="256" height="256" viewBox="0 0 256 256" fill="none" xmlns="http://www.w3.org/2000/svg">
<g clip-path="url(#clip0_6_2)">
<path d="M196 0H60C26.8629 0 0 26.8629 0 60V196C0 229.137 26.8629 256 60 256H196C229.137 256 256 229.137 256 196V60C256 26.8629 229.137 0 196 0Z" fill="white"/>
<path d="M49.5113 71.6769C43.3 74.0822 40 76.3702 40 78.1376C40 79.0249 49.7607 90.4429 61.56 103.504C73.4767 116.557 83.1127 127.469 83.1127 127.718C83.1127 127.975 73.352 138.88 61.5527 151.94C49.636 165.126 40.1247 176.661 40.2567 177.68C40.8873 181.105 51.286 185.417 58.8907 185.417C71.196 185.285 73.9827 183.129 99.9793 154.602C113.033 140.273 123.688 128.1 123.688 127.718C123.688 127.212 113.165 115.296 100.229 101.098C83.362 82.7062 75.1267 74.4636 71.1887 72.6889C65.234 69.7702 55.598 69.2642 49.5113 71.6769ZM184.936 72.5569C181.255 74.4636 172 83.5936 156.021 101.091C143.092 115.296 132.561 127.212 132.561 127.718C132.561 128.232 143.217 140.273 156.277 154.602C182.267 183.129 185.061 185.285 197.359 185.417C204.971 185.417 215.362 181.105 216 177.68C216.125 176.536 206.613 165.126 194.697 152.065C182.905 139.012 173.137 127.975 173.137 127.718C173.137 127.469 182.905 116.432 194.697 103.372C206.613 90.3256 216.125 78.9002 216 77.8882C215.362 74.5882 205.983 70.7896 197.865 70.2762C192.035 70.0269 188.991 70.5256 184.936 72.5569Z" fill="#E57000"/>
<path fill-rule="evenodd" clip-rule="evenodd" d="M76.1387 53.0357C68.1454 57.091 68.1454 57.729 75.6254 66.089C117.095 112.252 126.988 123.157 127.743 123.157C128.763 123.282 186.197 60.5157 186.835 58.6163C187.085 58.103 185.31 56.3283 183.029 54.6857C179.986 52.3977 176.693 51.5103 170.475 51.261C158.815 50.4983 154.752 53.0357 140.298 69.2643C133.705 76.6197 128.125 82.7063 128.125 82.7063C128 82.7063 122.551 76.7443 116.083 69.521C109.615 62.2977 102.135 55.0523 99.598 53.659C93.7607 50.359 81.844 50.1097 76.1314 53.0283L76.1387 53.0357ZM98.3294 164.121C82.6067 181.494 69.6707 196.197 69.414 196.828C69.1647 197.341 70.9394 199.116 73.2274 200.766C76.2634 203.046 79.5634 203.934 85.7747 204.19C97.3174 204.946 101.622 202.284 116.208 185.798C122.544 178.7 128 172.745 128.125 172.745C128.249 172.745 133.705 178.7 140.173 185.93C155.009 202.416 158.939 204.821 170.475 204.19C176.693 203.934 179.986 203.046 183.029 200.766C185.31 199.116 187.085 197.341 186.835 196.835C186.197 194.928 128.755 132.162 127.743 132.294C127.237 132.294 114.052 146.624 98.3294 164.121Z" fill="black"/>
</g>
<defs>
<clipPath id="clip0_6_2">
<rect width="256" height="256" fill="white"/>
</clipPath>
</defs>
</svg>
