<svg width="256" height="256" viewBox="0 0 256 256" fill="none" xmlns="http://www.w3.org/2000/svg">
<path d="M196 0H60C26.8629 0 0 26.8629 0 60V196C0 229.137 26.8629 256 60 256H196C229.137 256 256 229.137 256 196V60C256 26.8629 229.137 0 196 0Z" fill="white"/>
<path d="M36.0667 103.225L100.375 140.125L100.325 151.125L63.7417 130.142L40.7167 143.225L100.283 177.558L100.325 188.142L36.5083 151.433C36.675 155.733 40.575 168.983 48.0333 179.242C55.6167 189.633 64.25 194.042 64.25 194.042L123.233 228V126.742L36.125 76.7167L36.0667 103.225ZM219.933 71.5583L154.833 34.025C154.833 34.025 144.517 28 128.067 28C110.933 28 101 34.2167 101 34.2167L40.7 68.7167L132.442 121.45V228L192.817 193.533C192.817 193.533 203.608 187.575 211.808 173.417C219.033 160.95 219.933 148.892 219.933 148.892V71.5583ZM121.758 88.9C121.758 88.9 135.217 86.4167 146.592 92.9833L164.683 103.4C164.683 103.4 164.708 112.542 164.708 126.2C164.708 137.142 155.442 148.483 155.442 148.483L155.458 108.35L121.758 88.9ZM175.108 176.917L155.458 188.192V177.617L170.75 168.867C185.317 158.367 187.725 142.892 187.725 137.525L187.667 89.9833L145.95 65.975C145.95 65.975 139.617 61.8167 128.208 61.8167C116.817 61.8167 110.6 65.6583 110.6 65.6583L95.95 74.0833L86.7 68.7417L106.942 57.1667C106.942 57.1667 114.858 52.775 128.142 52.775C140.325 52.775 149.808 57.5333 149.808 57.5333L196.917 84.75L196.858 136.633C197.192 144.608 193.475 164.092 175.108 176.917Z" fill="#005F9E"/>
</svg>
